#Comment line ignore any data following # character 
#Hierarchical Translation and Rotation (.htr) file 
[Header]	
#Header keywords are followed by a single value 
FileType HTR		#Single word string
DataType HTRS		#Translation followed by rotation and scale data
FileVersion 1		#integer
NumSegments 64		#integer
NumFrames 3		#integer
DataFrameRate 30		#integer, data frame rate in this file
EulerRotationOrder ZYX
CalibrationUnits mm
RotationUnits Degrees
GlobalAxisofGravity Y
BoneLengthAxis Y
ScaleFactor 1.00
[SegmentNames&Hierarchy]
#CHILD	PARENT
Pinger_Root GLOBAL
Pelvis Pinger_Root
L_Hip Pelvis
R_Hip Pelvis
Rear_Leg01 Pelvis
Spine1 Pelvis
L_Leg01 L_Hip
L_Leg02 L_Leg01
L_Leg03 L_Leg02
L_Foot L_Leg03
L_Toe1_01 L_Foot
L_Toe2_01 L_Foot
L_Toe3_01 L_Foot
planeAlignerLeft L_Foot
L_Toe1_02 L_Toe1_01
L_Toe1_03 L_Toe1_02
L_Toe2_02 L_Toe2_01
L_Toe2_03 L_Toe2_02
L_Toe3_02 L_Toe3_01
L_Toe3_03 L_Toe3_02
planeLockWeightLeft planeAlignerLeft
R_Leg01 R_Hip
R_Leg02 R_Leg01
R_Leg03 R_Leg02
R_Foot R_Leg03
planeAlignerRight R_Foot
R_Toe1_01 R_Foot
R_Toe2_01 R_Foot
R_Toe3_01 R_Foot
planeLockWeightRight planeAlignerRight
R_Toe1_02 R_Toe1_01
R_Toe1_03 R_Toe1_02
R_Toe2_02 R_Toe2_01
R_Toe2_03 R_Toe2_02
R_Toe3_02 R_Toe3_01
R_Toe3_03 R_Toe3_02
Rear_Leg02 Rear_Leg01
Rear_Leg03 Rear_Leg02
Rear_Leg04 Rear_Leg03
Rear_Foot Rear_Leg04
planeAlignerCenter Rear_Foot
Rear_Toe1_01 Rear_Foot
Rear_Toe2_01 Rear_Foot
Rear_Toe3_01 Rear_Foot
planeLockWeightCenter planeAlignerCenter
Rear_Toe1_02 Rear_Toe1_01
Rear_Toe1_03 Rear_Toe1_02
Rear_Toe2_02 Rear_Toe2_01
Rear_Toe2_03 Rear_Toe2_02
Rear_Toe3_02 Rear_Toe3_01
Rear_Toe3_03 Rear_Toe3_02
Back_Bone Spine1
Head Spine1
Motor_Bone Back_Bone
Ping_Mechanism Back_Bone
BN_LookIK Head
bottomMouth Head
L_Mouth01 Head
L_mouthFront Head
mouthGun Head
R_Mouth01 Head
R_mouthFront Head
TopMouth Head
weapon_bone Head
[BasePosition]
#SegmentName Tx, Ty, Tz, Rx, Ry, Rz, BoneLength
Pinger_Root 0.000000 0.000000 0.000000 -90.000000 0.000000 0.000000 10.000000 
Pelvis 0.000000 0.000000 0.000000 0.000000 0.000000 0.000000 10.000000 
L_Hip 0.000000 0.000000 0.000000 0.000000 0.000000 0.000000 10.000000 
R_Hip 0.000000 0.000000 0.000000 0.000000 0.000000 0.000000 10.000000 
Rear_Leg01 0.000000 0.000000 0.000000 0.000000 0.000000 0.000000 10.000000 
Spine1 0.000000 0.000000 0.000000 0.000000 0.000000 0.000000 10.000000 
L_Leg01 0.000000 0.000000 0.000000 0.000000 0.000000 0.000000 10.000000 
L_Leg02 0.000000 0.000000 0.000000 0.000000 0.000000 0.000000 10.000000 
L_Leg03 0.000000 0.000000 0.000000 0.000000 0.000000 0.000000 10.000000 
L_Foot 0.000000 0.000000 0.000000 0.000000 0.000000 0.000000 10.000000 
L_Toe1_01 0.000000 0.000000 0.000000 0.000000 0.000000 0.000000 10.000000 
L_Toe2_01 0.000000 0.000000 0.000000 0.000000 0.000000 0.000000 10.000000 
L_Toe3_01 0.000000 0.000000 0.000000 0.000000 0.000000 0.000000 10.000000 
planeAlignerLeft 0.000000 0.000000 0.000000 0.000000 0.000000 0.000000 10.000000 
L_Toe1_02 0.000000 0.000000 0.000000 0.000000 0.000000 0.000000 10.000000 
L_Toe1_03 0.000000 0.000000 0.000000 0.000000 0.000000 0.000000 10.000000 
L_Toe2_02 0.000000 0.000000 0.000000 0.000000 0.000000 0.000000 10.000000 
L_Toe2_03 0.000000 0.000000 0.000000 0.000000 0.000000 0.000000 10.000000 
L_Toe3_02 0.000000 0.000000 0.000000 0.000000 0.000000 0.000000 10.000000 
L_Toe3_03 0.000000 0.000000 0.000000 0.000000 0.000000 0.000000 10.000000 
planeLockWeightLeft 0.000000 0.000000 0.000000 0.000000 0.000000 0.000000 10.000000 
R_Leg01 0.000000 0.000000 0.000000 0.000000 0.000000 0.000000 10.000000 
R_Leg02 0.000000 0.000000 0.000000 0.000000 0.000000 0.000000 10.000000 
R_Leg03 0.000000 0.000000 0.000000 0.000000 0.000000 0.000000 10.000000 
R_Foot 0.000000 0.000000 0.000000 0.000000 0.000000 0.000000 10.000000 
planeAlignerRight 0.000000 0.000000 0.000000 0.000000 0.000000 0.000000 10.000000 
R_Toe1_01 0.000000 0.000000 0.000000 0.000000 0.000000 0.000000 10.000000 
R_Toe2_01 0.000000 0.000000 0.000000 0.000000 0.000000 0.000000 10.000000 
R_Toe3_01 0.000000 0.000000 0.000000 0.000000 0.000000 0.000000 10.000000 
planeLockWeightRight 0.000000 0.000000 0.000000 0.000000 0.000000 0.000000 10.000000 
R_Toe1_02 0.000000 0.000000 0.000000 0.000000 0.000000 0.000000 10.000000 
R_Toe1_03 0.000000 0.000000 0.000000 0.000000 0.000000 0.000000 10.000000 
R_Toe2_02 0.000000 0.000000 0.000000 0.000000 0.000000 0.000000 10.000000 
R_Toe2_03 0.000000 0.000000 0.000000 0.000000 0.000000 0.000000 10.000000 
R_Toe3_02 0.000000 0.000000 0.000000 0.000000 0.000000 0.000000 10.000000 
R_Toe3_03 0.000000 0.000000 0.000000 0.000000 0.000000 0.000000 10.000000 
Rear_Leg02 0.000000 0.000000 0.000000 0.000000 0.000000 0.000000 10.000000 
Rear_Leg03 0.000000 0.000000 0.000000 0.000000 0.000000 0.000000 10.000000 
Rear_Leg04 0.000000 0.000000 0.000000 0.000000 0.000000 0.000000 10.000000 
Rear_Foot 0.000000 0.000000 0.000000 0.000000 0.000000 0.000000 10.000000 
planeAlignerCenter 0.000000 0.000000 0.000000 0.000000 0.000000 0.000000 10.000000 
Rear_Toe1_01 0.000000 0.000000 0.000000 0.000000 0.000000 0.000000 10.000000 
Rear_Toe2_01 0.000000 0.000000 0.000000 0.000000 0.000000 0.000000 10.000000 
Rear_Toe3_01 0.000000 0.000000 0.000000 0.000000 0.000000 0.000000 10.000000 
planeLockWeightCenter 0.000000 0.000000 0.000000 0.000000 0.000000 0.000000 10.000000 
Rear_Toe1_02 0.000000 0.000000 0.000000 0.000000 0.000000 0.000000 10.000000 
Rear_Toe1_03 0.000000 0.000000 0.000000 0.000000 0.000000 0.000000 10.000000 
Rear_Toe2_02 0.000000 0.000000 0.000000 0.000000 0.000000 0.000000 10.000000 
Rear_Toe2_03 0.000000 0.000000 0.000000 0.000000 0.000000 0.000000 10.000000 
Rear_Toe3_02 0.000000 0.000000 0.000000 0.000000 0.000000 0.000000 10.000000 
Rear_Toe3_03 0.000000 0.000000 0.000000 0.000000 0.000000 0.000000 10.000000 
Back_Bone 0.000000 0.000000 0.000000 0.000000 0.000000 0.000000 10.000000 
Head 0.000000 0.000000 0.000000 0.000000 0.000000 0.000000 10.000000 
Motor_Bone 0.000000 0.000000 0.000000 0.000000 0.000000 0.000000 10.000000 
Ping_Mechanism 0.000000 0.000000 0.000000 0.000000 0.000000 0.000000 10.000000 
BN_LookIK 0.000000 0.000000 0.000000 0.000000 0.000000 0.000000 10.000000 
bottomMouth 0.000000 0.000000 0.000000 0.000000 0.000000 0.000000 10.000000 
L_Mouth01 0.000000 0.000000 0.000000 0.000000 0.000000 0.000000 10.000000 
L_mouthFront 0.000000 0.000000 0.000000 0.000000 0.000000 0.000000 10.000000 
mouthGun 0.000000 0.000000 0.000000 0.000000 0.000000 0.000000 10.000000 
R_Mouth01 0.000000 0.000000 0.000000 0.000000 0.000000 0.000000 10.000000 
R_mouthFront 0.000000 0.000000 0.000000 0.000000 0.000000 0.000000 10.000000 
TopMouth 0.000000 0.000000 0.000000 0.000000 0.000000 0.000000 10.000000 
weapon_bone 0.000000 0.000000 0.000000 0.000000 0.000000 0.000000 10.000000 
#Beginning of Data. Separated by tabs
#Fr	Tx	Ty	Tz	Rx	Ry	Rz	SF
[Pinger_Root]
14 1685.185547 0.000000 0.000000 -0.000075 -0.000000 -0.000020 1685.185547
15 1814.815063 0.000000 0.000000 -0.000075 -0.000000 -0.000020 1814.815063
16 1944.444824 0.000000 0.000000 -0.000075 -0.000000 -0.000020 1944.444824
[Pelvis]
14 646.362854 301.858887 5185.830078 61.540539 -79.735626 -107.376488 5234.666992
15 616.015137 311.315735 5126.838379 57.636047 -79.172333 -101.857956 5173.090332
16 573.636780 332.121094 5067.494141 54.221371 -78.545769 -96.827591 5110.661133
[L_Hip]
14 5.766392 125.831482 872.656799 -178.250168 -81.786369 87.376007 881.701050
15 5.766392 125.831482 872.656799 -178.250168 -81.786369 87.376007 881.701050
16 5.766392 125.831482 872.656799 -178.250168 -81.786369 87.376007 881.701050
[R_Hip]
14 5.765438 125.836372 -872.654907 -1.748770 81.786041 87.376961 881.699829
15 5.765438 125.836372 -872.654907 -1.748770 81.786041 87.376961 881.699829
16 5.765438 125.836372 -872.654907 -1.748770 81.786041 87.376961 881.699829
[Rear_Leg01]
14 -192.298416 -925.602966 -0.001907 174.734634 1.925409 159.580948 945.367432
15 -192.298416 -925.602966 -0.001907 176.475159 2.610688 162.403549 945.367432
16 -192.298416 -925.602966 -0.001907 178.388718 3.395519 167.236954 945.367432
[Spine1]
14 290.604584 5.007505 0.000477 32.369015 -22.152151 35.591228 290.647736
15 290.604584 5.007505 0.000477 30.368237 -21.875139 35.778961 290.647736
16 290.604584 5.007505 0.000477 28.372929 -21.592310 35.955769 290.647736
[L_Leg01]
14 761.932007 -0.002384 -0.069261 74.778572 -13.521890 -74.639771 761.932068
15 761.932007 -0.002384 -0.069261 75.902893 -12.592480 -75.330757 761.932068
16 761.932007 -0.002384 -0.069261 76.686737 -11.701607 -76.130463 761.932068
[L_Leg02]
14 1441.140503 -0.000954 -0.000715 -1.342740 0.769165 -92.524300 1441.140503
15 1441.140503 -0.000954 -0.000715 -1.368967 0.740248 -92.357056 1441.140503
16 1441.140503 -0.000954 -0.000715 -1.395278 0.711407 -92.189804 1441.140503
[L_Leg03]
14 1686.963989 -0.000715 -0.000954 0.086621 -0.011673 86.932938 1686.963989
15 1686.963989 -0.000715 -0.000954 0.079456 -0.013091 88.701706 1686.963989
16 1686.963989 -0.000715 -0.000954 0.072250 -0.014287 90.470901 1686.963989
[L_Foot]
14 3041.570068 -30.715107 11.297464 -17.285803 16.087656 62.820179 3041.746094
15 3041.570068 -30.715107 11.297464 -18.232336 15.441663 62.087902 3041.746094
16 3041.570068 -30.715107 11.297464 -18.824589 14.344263 61.277622 3041.746094
[L_Toe1_01]
14 -188.216690 -224.732346 -21.137953 89.232712 -1.820070 -159.568832 293.899567
15 -188.216690 -224.732346 -21.137953 89.182625 -1.798486 -158.273071 293.899567
16 -188.216690 -224.732346 -21.137953 89.133057 -1.775782 -156.977478 293.899567
[L_Toe2_01]
14 200.746536 -219.926590 148.838394 -77.054710 -13.046981 -47.484093 332.896027
15 200.746536 -219.926590 148.838394 -76.796722 -12.829742 -48.668301 332.896027
16 200.746536 -219.926590 148.838394 -76.543625 -12.607376 -49.850338 332.896027
[L_Toe3_01]
14 188.832520 -219.859131 -191.078659 -106.845589 16.194588 -49.420246 347.140900
15 188.832520 -219.859131 -191.078659 -107.166161 15.910634 -50.602543 347.140900
16 188.832520 -219.859131 -191.078659 -107.480049 15.620416 -51.781342 347.140900
[planeAlignerLeft]
14 -58.406227 -655.565308 0.020275 0.000000 -90.000000 -90.001900 658.161987
15 -61.339725 -669.163208 0.017738 0.000000 -90.000000 -90.001900 671.968750
16 -63.663536 -685.855591 0.015030 0.000000 -90.000000 -90.001900 688.803955
[L_Toe1_02]
14 413.761139 0.000477 0.000000 0.001395 -24.614794 0.001395 413.761139
15 413.761139 0.000477 0.000000 0.001393 -24.835148 0.001393 413.761139
16 413.761139 0.000477 0.000000 0.001391 -25.055490 0.001391 413.761139
[L_Toe1_03]
14 464.317322 0.000358 -0.000089 0.006744 69.955124 0.006744 464.317322
15 464.317322 0.000358 -0.000089 0.006153 68.004257 0.006153 464.317322
16 464.317322 0.000358 -0.000089 0.005657 66.053360 0.005657 464.317322
[L_Toe2_02]
14 342.235809 -0.000477 0.000238 0.001180 -78.272591 0.001180 342.235809
15 342.235809 -0.000477 0.000238 0.001180 -78.111877 0.001180 342.235809
16 342.235809 -0.000477 0.000238 0.001180 -77.951012 0.001180 342.235809
[L_Toe2_03]
14 420.210846 -0.000715 0.000000 -179.997650 73.939781 -179.994125 420.210846
15 420.210846 -0.000715 0.000000 -179.997330 75.100105 -179.993805 420.210846
16 420.210846 -0.000715 0.000000 -179.996964 76.260399 -179.993439 420.210846
[L_Toe3_02]
14 329.270111 0.000954 0.000000 0.001177 -81.784744 0.001177 329.270111
15 329.270111 0.000954 0.000000 0.001177 -81.579414 0.001177 329.270111
16 329.270111 0.000954 0.000000 0.001177 -81.374176 0.001177 329.270111
[L_Toe3_03]
14 439.137451 -0.001907 0.000954 -179.998047 72.265205 -179.994507 439.137451
15 439.137451 -0.001907 0.000954 -179.997787 73.448341 -179.994247 439.137451
16 439.137451 -0.001907 0.000954 -179.997467 74.631592 -179.993942 439.137451
[planeLockWeightLeft]
14 999.999084 0.098114 0.076232 -0.011826 -0.004376 0.005620 999.999084
15 999.999084 0.098126 0.076229 -0.011826 -0.004376 0.005620 999.999084
16 999.999084 0.098137 0.076225 -0.011826 -0.004376 0.005620 999.999084
[R_Leg01]
14 761.455627 -0.001907 -0.000358 94.907356 4.029009 98.268600 761.455688
15 761.455627 -0.001907 -0.000358 92.730255 1.282292 94.735764 761.455688
16 761.455627 -0.001907 -0.000358 90.654243 -6.304868 90.331635 761.455688
[R_Leg02]
14 1441.140625 0.000000 -0.000238 0.149099 -0.074046 -111.251709 1441.140625
15 1441.140625 0.000000 -0.000238 0.120665 -0.091701 -121.798515 1441.140625
16 1441.140625 0.000000 -0.000238 -0.111425 -0.013644 -134.040680 1441.140625
[R_Leg03]
14 1686.963989 0.000954 0.001431 -0.092763 0.013347 84.872040 1686.963989
15 1686.963989 0.000954 0.001431 -0.060089 0.016053 93.922630 1686.963989
16 1686.963989 0.000954 0.001431 -0.049403 0.013440 96.792282 1686.963989
[R_Foot]
14 3041.560059 -30.531288 -11.204481 1.737922 -31.063427 89.541359 3041.734131
15 3041.560059 -30.531288 -11.204481 5.141038 -33.422588 87.328041 3041.734131
16 3041.560059 -30.531288 -11.204481 7.639639 -35.605484 90.003120 3041.734131
[planeAlignerRight]
14 -157.311081 -836.314331 15.535276 0.000000 -89.960434 -90.005180 851.122620
15 -173.603333 -830.370605 15.006102 0.000000 -89.960434 -90.005180 848.456665
16 -189.895569 -824.426880 14.476928 0.000000 -89.960434 -90.005180 846.138062
[R_Toe1_01]
14 -188.383347 -224.864899 21.052242 91.195190 0.706055 -143.391205 294.101532
15 -188.383347 -224.864899 21.052242 91.252815 0.700713 -145.326721 294.101532
16 -188.383347 -224.864899 21.052242 91.360863 0.668773 -145.139206 294.101532
[R_Toe2_01]
14 200.637817 -220.002121 -148.787384 -105.711197 9.323460 -63.174347 332.857574
15 200.637817 -220.002121 -148.787384 -106.443520 8.263463 -68.974892 332.857574
16 200.637817 -220.002121 -148.787384 -107.186790 6.435831 -77.165314 332.857574
[R_Toe3_01]
14 188.606735 -220.092957 191.126343 -69.012291 -13.364680 -65.599403 347.192566
15 188.606735 -220.092957 191.126343 -68.289902 -12.147264 -71.112068 347.192566
16 188.606735 -220.092957 191.126343 -67.555046 -9.879760 -78.870247 347.192566
[planeLockWeightRight]
14 -0.000000 -0.000496 0.076447 -0.011823 -0.004379 -0.000027 0.076448
15 -0.000087 -0.000512 0.076436 -0.011823 -0.004379 -0.000027 0.076437
16 -0.000174 -0.000529 0.076425 -0.011823 -0.004379 -0.000027 0.076427
[R_Toe1_02]
14 413.762085 0.000477 -0.000119 0.001387 -25.581667 0.001387 413.762085
15 413.762085 0.000477 -0.000119 0.001390 -25.226784 0.001390 413.762085
16 413.762085 0.000477 -0.000119 0.001407 -23.067171 0.001407 413.762085
[R_Toe1_03]
14 464.317810 0.000000 0.001088 0.003080 45.195831 0.003080 464.317810
15 464.317810 0.000000 0.001088 0.005509 65.399803 0.005509 464.317810
16 464.317810 0.000000 0.001088 0.011464 78.248245 0.011464 464.317810
[R_Toe2_02]
14 342.234741 -0.000954 0.000238 -0.002339 -76.970291 -0.002339 342.234741
15 342.234741 -0.000954 0.000238 -0.002333 -79.229172 -0.002333 342.234741
16 342.234741 -0.000954 0.000238 -0.002332 -80.040443 -0.002332 342.234741
[R_Toe2_03]
14 420.210846 0.000715 -0.000268 -179.991928 79.548401 -179.995438 420.210846
15 420.210846 0.000715 -0.000268 -179.995148 68.500839 -179.998703 420.210846
16 420.210846 0.000715 -0.000268 -179.995804 62.386387 -179.999390 420.210846
[R_Toe3_02]
14 329.270355 -0.000477 -0.000954 0.001178 -80.363831 0.001178 329.270355
15 329.270355 -0.000477 -0.000954 0.001176 -82.662041 0.001176 329.270355
16 329.270355 -0.000477 -0.000954 0.001175 -83.607292 0.001175 329.270355
[R_Toe3_03]
14 439.137939 0.000238 0.001431 -179.995728 79.053818 -179.992218 439.137939
15 439.137939 0.000238 0.001431 -179.998749 68.148193 -179.995178 439.137939
16 439.137939 0.000238 0.001431 -179.999451 61.832161 -179.995834 439.137939
[Rear_Leg02]
14 1162.777710 -0.029802 0.005960 4.936277 -7.211898 -155.756592 1162.777710
15 1162.777710 -0.029802 0.005960 3.623881 -4.443821 -158.860825 1162.777710
16 1162.777710 -0.029802 0.005960 2.078771 -2.042221 -160.411026 1162.777710
[Rear_Leg03]
14 607.192505 -0.013351 -0.073195 0.010308 -0.005467 72.234619 607.192505
15 607.192505 -0.013351 -0.073195 0.010244 -0.005590 73.595360 607.192505
16 607.192505 -0.013351 -0.073195 0.010177 -0.005711 74.956284 607.192505
[Rear_Leg04]
14 995.874512 -0.020504 -0.011921 -0.041487 -0.015743 75.802193 995.874573
15 995.874512 -0.020504 -0.011921 -0.045088 -0.018315 79.201447 995.874573
16 995.874512 -0.020504 -0.011921 -0.043896 -0.018343 83.309586 995.874573
[Rear_Foot]
14 3096.176270 -0.067472 -0.041425 -95.249458 81.162178 62.619686 3096.176270
15 3096.176270 -0.067472 -0.041425 -109.731773 83.844887 49.405037 3096.176270
16 3096.176270 -0.067472 -0.041425 -135.356049 85.771164 24.614702 3096.176270
[planeAlignerCenter]
14 0.621033 77.063995 -655.700500 0.000009 0.000003 -179.999985 660.213867
15 0.620193 28.053421 -663.559753 0.000009 0.000003 -179.999985 664.152771
16 0.619354 -20.957180 -671.418884 0.000009 0.000003 -179.999985 671.746216
[Rear_Toe1_01]
14 0.653352 83.966492 -371.173737 0.060639 18.486643 90.031403 380.553192
15 0.653352 83.966492 -371.173737 0.060529 17.182741 90.033775 380.553192
16 0.653352 83.966492 -371.173737 0.070098 16.309643 90.028839 380.553192
[Rear_Toe2_01]
14 178.200760 -294.826019 -362.060547 0.821774 43.174328 -70.003365 499.765686
15 178.200760 -294.826019 -362.060547 0.288786 43.855183 -71.194550 499.765686
16 178.200760 -294.826019 -362.060547 -0.270047 44.527706 -72.408218 499.765686
[Rear_Toe3_01]
14 -153.359680 -308.780914 -362.060852 -1.040804 43.195747 -112.448723 499.952881
15 -153.359680 -308.780914 -362.060852 -0.445559 43.869064 -111.122375 499.952881
16 -153.359680 -308.780914 -362.060852 0.178107 44.532017 -109.771286 499.952881
[planeLockWeightCenter]
14 999.999756 0.000280 0.076173 -0.011814 -0.004373 -0.000015 999.999756
15 999.999756 0.000276 0.076186 -0.011814 -0.004373 -0.000015 999.999756
16 999.999756 0.000272 0.076199 -0.011814 -0.004373 -0.000015 999.999756
[Rear_Toe1_02]
14 379.707825 0.194073 0.000477 -0.000767 -33.624729 0.000838 379.707855
15 379.707825 0.194073 0.000477 -0.000767 -33.624729 0.000838 379.707855
16 379.707825 0.194073 0.000477 -0.000767 -33.624729 0.000838 379.707855
[Rear_Toe1_03]
14 500.129700 0.165701 0.000119 0.009594 75.946419 0.009593 500.129761
15 500.129700 0.165701 0.000119 -0.009630 84.210228 -0.013131 500.129761
16 500.129700 0.165701 0.000119 -179.953186 88.537804 -179.956696 500.129761
[Rear_Toe2_02]
14 340.494507 0.000238 -0.000954 -0.061613 -86.717178 0.060463 340.494507
15 340.494507 0.000238 -0.000954 0.001175 -83.653687 0.001175 340.494507
16 340.494507 0.000238 -0.000954 0.001179 -79.848183 0.001179 340.494507
[Rear_Toe2_03]
14 433.103577 0.000000 0.000238 -179.993301 76.638176 -179.996826 433.103546
15 433.103577 0.000000 0.000238 179.975632 84.477211 179.975632 433.103546
16 433.103577 0.000000 0.000238 0.046764 87.123558 0.046764 433.103546
[Rear_Toe3_02]
14 340.494141 -0.000358 -0.000477 0.001174 -86.628723 0.001174 340.494171
15 340.494141 -0.000358 -0.000477 0.001175 -83.587364 0.001175 340.494171
16 340.494141 -0.000358 -0.000477 0.001179 -79.821266 0.001179 340.494171
[Rear_Toe3_03]
14 433.103577 0.001431 -0.000238 -179.996735 76.890526 -179.993210 433.103546
15 433.103577 0.001431 -0.000238 -179.989471 84.630898 -179.985977 433.103546
16 433.103577 0.001431 -0.000238 -0.024223 87.068954 -0.020725 433.103546
[Back_Bone]
14 1312.175781 -701.934692 0.000954 -2.028958 -3.649432 -80.802025 1488.125488
15 1312.175781 -701.934692 0.000954 -1.695368 -3.648055 -80.517944 1488.125488
16 1312.175781 -701.934692 0.000954 -1.361781 -3.648327 -80.233856 1488.125488
[Head]
14 1406.159424 809.709290 0.001431 5.054915 -5.917817 2.263891 1622.625488
15 1406.159424 809.709290 0.001431 5.296645 -6.238033 3.442142 1622.625488
16 1406.159424 809.709290 0.001431 5.643806 -6.512851 3.983915 1622.625488
[Motor_Bone]
14 1158.364380 -417.834747 0.000477 -1.029631 1.419345 -104.575356 1231.419434
15 1158.364380 -417.834747 0.000477 -0.583225 2.827931 -103.156052 1231.419434
16 1158.364380 -417.834747 0.000477 0.001255 -0.033980 -106.020981 1231.419434
[Ping_Mechanism]
14 1178.415894 -397.262817 -5.370104 0.000103 -0.000053 82.120995 1243.587769
15 1176.120728 -395.364258 -0.519583 0.000103 -0.000053 82.120995 1240.795410
16 1173.825562 -393.465698 4.330942 0.000103 -0.000053 82.120995 1238.022705
[BN_LookIK]
14 193.241119 1380.371704 -0.002861 0.000000 89.965736 -31.038179 1393.832153
15 193.241119 1380.371704 -0.002861 0.000000 89.965736 -31.038179 1393.832153
16 193.241119 1380.371704 -0.002861 0.000000 89.965736 -31.038179 1393.832153
[bottomMouth]
14 -435.092926 615.759399 -0.000954 -0.000022 0.000016 73.527184 753.966492
15 -435.092926 615.759399 -0.000954 -0.000022 0.000016 73.527184 753.966492
16 -435.092926 615.759399 -0.000954 -0.000022 0.000016 73.527184 753.966492
[L_Mouth01]
14 554.440979 7.658243 838.222046 150.204178 23.759130 109.605339 1005.027161
15 554.440979 7.658243 838.222046 150.204178 23.759130 109.605339 1005.027161
16 554.440979 7.658243 838.222046 150.204178 23.759130 109.605339 1005.027161
[L_mouthFront]
14 551.629089 934.514771 339.150421 0.000081 2.804060 79.119301 1136.941284
15 551.629089 934.514771 339.150421 0.000081 2.804060 79.119301 1136.941284
16 551.629089 934.514771 339.150421 0.000081 2.804060 79.119301 1136.941284
[mouthGun]
14 55.332661 1627.420898 0.000000 0.000023 0.000009 -11.038128 1628.361328
15 55.332661 1627.420898 0.000000 0.000023 0.000009 -11.038128 1628.361328
16 55.332661 1627.420898 0.000000 0.000023 0.000009 -11.038128 1628.361328
[R_Mouth01]
14 554.442383 7.659197 -838.223938 29.795891 -23.759109 109.605331 1005.029541
15 554.442383 7.659197 -838.223938 29.795891 -23.759109 109.605331 1005.029541
16 554.442383 7.659197 -838.223938 29.795891 -23.759109 109.605331 1005.029541
[R_mouthFront]
14 551.629089 934.514282 -339.151367 0.000029 -2.803930 79.119133 1136.941162
15 551.629089 934.514282 -339.151367 0.000029 -2.803930 79.119133 1136.941162
16 551.629089 934.514282 -339.151367 0.000029 -2.803930 79.119133 1136.941162
[TopMouth]
14 461.269867 -56.106091 -0.008583 -0.000059 -0.000268 92.025169 464.669525
15 461.269867 -56.106091 -0.008583 -0.000059 -0.000268 92.025169 464.669525
16 461.269867 -56.106091 -0.008583 -0.000059 -0.000268 92.025169 464.669525
[weapon_bone]
14 -987.239868 1448.372803 0.001431 0.000000 89.965736 -31.038221 1752.833740
15 -987.239868 1448.372803 0.001431 0.000000 89.965736 -31.038221 1752.833740
16 -987.239868 1448.372803 0.001431 0.000000 89.965736 -31.038221 1752.833740
